<svg width="21" height="22" viewBox="0 0 21 22" fill="none" xmlns="http://www.w3.org/2000/svg">
<g clip-path="url(#clip0_105_80)">
<path d="M9.48164 0.530775C9.78206 0.391962 10.1091 0.320068 10.44 0.320068C10.7709 0.320068 11.0979 0.391962 11.3984 0.530775L20.3131 4.65086C20.6598 4.80991 20.88 5.15655 20.88 5.50319C20.88 5.91916 20.6598 6.2658 20.3131 6.42893L11.3984 10.5478C10.7907 10.8292 10.0893 10.8292 9.48164 10.5478L0.568083 6.42893C0.221768 6.2658 0 5.91916 0 5.50319C0 5.15655 0.221728 4.80991 0.568083 4.65086L9.48164 0.530775ZM20.3131 9.87086C20.6598 10.0299 20.88 10.3766 20.88 10.7232C20.88 11.1392 20.6598 11.4858 20.3131 11.6489L11.3984 15.7678C10.7907 16.0492 10.0893 16.0492 9.48164 15.7678L0.568083 11.6489C0.221768 11.4858 0 11.1392 0 10.7232C0 10.3766 0.221728 10.0299 0.568083 9.87086L2.73765 8.86765L8.93517 11.7305C9.88945 12.175 10.9905 12.175 11.9448 11.7305L18.1436 8.86765L20.3131 9.87086ZM11.9448 16.9505L18.1436 14.0876L20.3131 15.0909C20.6598 15.2499 20.88 15.5966 20.88 15.9432C20.88 16.3592 20.6598 16.7058 20.3131 16.8689L11.3984 20.9878C10.7907 21.2692 10.0893 21.2692 9.48164 20.9878L0.568083 16.8689C0.221768 16.7058 0 16.3592 0 15.9432C0 15.5966 0.221728 15.2499 0.568083 15.0909L2.73765 14.0876L8.93517 16.9505C9.88945 17.395 10.9905 17.395 11.9448 16.9505Z" fill="#F0920D"/>
</g>
<defs>
<clipPath id="clip0_105_80">
<rect width="20.88" height="20.88" fill="white" transform="translate(0 0.320068)"/>
</clipPath>
</defs>
</svg>
