<svg width="21" height="21" viewBox="0 0 21 21" fill="none" xmlns="http://www.w3.org/2000/svg">
<g clip-path="url(#clip0_105_189)">
<path d="M16.7639 2.47036H14.0497V1.67208C14.0497 1.54505 13.9992 1.42323 13.9094 1.3334C13.8196 1.24358 13.6978 1.19312 13.5707 1.19312H6.8652C6.73817 1.19312 6.61634 1.24358 6.52652 1.3334C6.43669 1.42323 6.38623 1.54505 6.38623 1.67208V2.47036H3.67208C3.54505 2.47036 3.42323 2.52082 3.3334 2.61065C3.24358 2.70047 3.19312 2.8223 3.19312 2.94933V19.8728C3.19312 19.9999 3.24358 20.1217 3.3334 20.2115C3.42323 20.3013 3.54505 20.3518 3.67208 20.3518H16.7639C16.8909 20.3518 17.0127 20.3013 17.1025 20.2115C17.1924 20.1217 17.2428 19.9999 17.2428 19.8728V2.94933C17.2428 2.8223 17.1924 2.70047 17.1025 2.61065C17.0127 2.52082 16.8909 2.47036 16.7639 2.47036ZM13.4059 5.02485H7.03004V3.74761H13.4059V5.02485Z" fill="#F0920D"/>
</g>
<defs>
<clipPath id="clip0_105_189">
<rect width="20.4359" height="20.4359" fill="white" transform="translate(0 0.554688)"/>
</clipPath>
</defs>
</svg>
