<svg width="21" height="21" viewBox="0 0 21 21" fill="none" xmlns="http://www.w3.org/2000/svg">
<path d="M16.6388 4.56738H7.50375C6.72501 4.56738 5.97816 4.87674 5.42751 5.42739C4.87686 5.97804 4.5675 6.72489 4.5675 7.50363V16.6386C4.5675 17.4174 4.87686 18.1642 5.42751 18.7149C5.97816 19.2655 6.72501 19.5749 7.50375 19.5749H16.6388C17.4175 19.5749 18.1643 19.2655 18.715 18.7149C19.2656 18.1642 19.575 17.4174 19.575 16.6386V7.50363C19.575 6.72489 19.2656 5.97804 18.715 5.42739C18.1643 4.87674 17.4175 4.56738 16.6388 4.56738ZM15.3154 12.7236H12.7238V15.3153C12.7238 15.6664 12.4538 15.9678 12.1027 15.9853C12.0144 15.9896 11.9263 15.9759 11.8435 15.945C11.7607 15.9142 11.6851 15.8669 11.6211 15.806C11.5572 15.745 11.5063 15.6717 11.4715 15.5906C11.4367 15.5094 11.4188 15.422 11.4188 15.3336V12.7236H8.8271C8.47598 12.7236 8.1746 12.4537 8.15707 12.1025C8.15282 12.0143 8.16652 11.9261 8.19735 11.8434C8.22818 11.7606 8.2755 11.6849 8.33643 11.621C8.39736 11.5571 8.47064 11.5062 8.55183 11.4714C8.63302 11.4366 8.72042 11.4186 8.80875 11.4186H11.4188V8.82698C11.4188 8.47586 11.6887 8.17448 12.0398 8.15695C12.1281 8.1527 12.2162 8.1664 12.299 8.19723C12.3818 8.22807 12.4574 8.27538 12.5214 8.33631C12.5853 8.39724 12.6362 8.47053 12.671 8.55171C12.7058 8.6329 12.7237 8.72031 12.7238 8.80863V11.4186H15.3338C15.4221 11.4185 15.5096 11.4364 15.5909 11.4711C15.6722 11.5059 15.7456 11.5568 15.8066 11.6207C15.8676 11.6847 15.915 11.7604 15.9459 11.8432C15.9768 11.926 15.9905 12.0142 15.9863 12.1025C15.9691 12.4537 15.6665 12.7236 15.3154 12.7236Z" fill="#F0920D"/>
<path d="M16.1445 3.26243C15.9415 2.69037 15.5664 2.19513 15.0708 1.84467C14.5752 1.4942 13.9833 1.30566 13.3763 1.30493H4.24125C3.46251 1.30493 2.71566 1.61429 2.16501 2.16494C1.61435 2.71559 1.305 3.46244 1.305 4.24118V13.3762C1.30573 13.9832 1.49427 14.5751 1.84473 15.0707C2.1952 15.5664 2.69044 15.9414 3.2625 16.1444V6.52493C3.2625 5.65966 3.60623 4.82983 4.21806 4.218C4.8299 3.60616 5.65973 3.26243 6.525 3.26243H16.1445Z" fill="#F0920D"/>
</svg>
