<svg width="21" height="22" viewBox="0 0 21 22" fill="none" xmlns="http://www.w3.org/2000/svg">
<path d="M18.5963 19.735H5.54625C5.28667 19.735 5.03772 19.6319 4.85417 19.4484C4.67062 19.2648 4.5675 19.0159 4.5675 18.7563V5.38004C4.5675 5.20699 4.63625 5.04102 4.75861 4.91865C4.88098 4.79628 5.04695 4.72754 5.22 4.72754H18.5963C18.8558 4.72754 19.1048 4.83066 19.2883 5.01421C19.4719 5.19776 19.575 5.44671 19.575 5.70629V18.7563C19.575 19.0159 19.4719 19.2648 19.2883 19.4484C19.1048 19.6319 18.8558 19.735 18.5963 19.735Z" fill="#F0920D"/>
<path d="M4.5675 3.42259H16.3125V2.44384C16.3125 2.18426 16.2094 1.93531 16.0258 1.75176C15.8423 1.56821 15.5933 1.46509 15.3337 1.46509H2.44688C2.14403 1.46509 1.85359 1.58539 1.63945 1.79954C1.4253 2.01368 1.305 2.30412 1.305 2.60696V15.4938C1.305 15.7534 1.40812 16.0024 1.59167 16.1859C1.77522 16.3695 2.02417 16.4726 2.28375 16.4726H3.2625V4.72759C3.2625 4.38148 3.39999 4.04955 3.64473 3.80481C3.88946 3.56008 4.22139 3.42259 4.5675 3.42259Z" fill="#F0920D"/>
</svg>
