<svg width="21" height="21" viewBox="0 0 21 21" fill="none" xmlns="http://www.w3.org/2000/svg">
<path d="M18.0498 13.8253C17.9835 13.7454 17.9185 13.6656 17.8546 13.5886C16.9765 12.5265 16.4453 11.8855 16.4453 8.87874C16.4453 7.32209 16.0729 6.04485 15.3388 5.08691C14.7976 4.37924 14.066 3.8424 13.1017 3.44565C13.0893 3.43875 13.0782 3.42969 13.0689 3.41891C12.7221 2.25741 11.7729 1.47949 10.7024 1.47949C9.63195 1.47949 8.68319 2.25741 8.33634 3.41771C8.32708 3.4281 8.31616 3.43687 8.30401 3.44366C6.05366 4.37006 4.96002 6.14743 4.96002 8.87754C4.96002 11.8855 4.42957 12.5265 3.55066 13.5874C3.4868 13.6644 3.42174 13.7426 3.35548 13.8241C3.18433 14.0305 3.07589 14.2816 3.043 14.5477C3.01011 14.8138 3.05414 15.0838 3.16988 15.3256C3.41615 15.8445 3.94102 16.1666 4.54013 16.1666H16.8691C17.4655 16.1666 17.9867 15.8449 18.2338 15.3284C18.35 15.0865 18.3945 14.8163 18.3619 14.5499C18.3293 14.2835 18.221 14.032 18.0498 13.8253ZM10.7024 19.3609C11.2792 19.3605 11.8451 19.2039 12.3401 18.9079C12.8351 18.6118 13.2407 18.1873 13.514 17.6794C13.5268 17.655 13.5332 17.6278 13.5324 17.6002C13.5317 17.5727 13.5238 17.5459 13.5096 17.5223C13.4953 17.4987 13.4753 17.4792 13.4513 17.4657C13.4273 17.4521 13.4002 17.445 13.3727 17.4451H8.033C8.00543 17.445 7.9783 17.452 7.95426 17.4655C7.93022 17.479 7.91009 17.4985 7.89582 17.5221C7.88155 17.5457 7.87364 17.5726 7.87285 17.6001C7.87205 17.6277 7.87841 17.655 7.8913 17.6794C8.16453 18.1872 8.5701 18.6117 9.06501 18.9077C9.55993 19.2038 10.1257 19.3604 10.7024 19.3609Z" fill="#F0920D"/>
</svg>
