<svg width="21" height="21" viewBox="0 0 21 21" fill="none" xmlns="http://www.w3.org/2000/svg">
<path d="M15.9656 2.47046H4.47037C3.7931 2.4712 3.14379 2.74057 2.66489 3.21947C2.18599 3.69837 1.91662 4.34768 1.91588 5.02495V16.5202C1.91662 17.1974 2.18599 17.8467 2.66489 18.3256C3.14379 18.8045 3.7931 19.0739 4.47037 19.0747H15.9656C16.6428 19.0739 17.2922 18.8045 17.7711 18.3256C18.25 17.8467 18.5193 17.1974 18.5201 16.5202V5.02495C18.5193 4.34768 18.25 3.69837 17.7711 3.21947C17.2922 2.74057 16.6428 2.4712 15.9656 2.47046ZM14.5387 7.99016L9.17423 14.3764C9.11538 14.4465 9.04216 14.5031 8.95952 14.5424C8.87689 14.5817 8.78676 14.6028 8.69526 14.6043H8.68448C8.59497 14.6043 8.50646 14.5854 8.42471 14.549C8.34295 14.5125 8.26977 14.4593 8.20991 14.3928L5.91086 11.8383C5.85248 11.7763 5.80706 11.7034 5.77727 11.6236C5.74749 11.5439 5.73395 11.459 5.73744 11.374C5.74093 11.2889 5.76138 11.2054 5.7976 11.1284C5.83382 11.0514 5.88507 10.9824 5.94833 10.9255C6.0116 10.8685 6.08561 10.8248 6.16601 10.7969C6.24641 10.769 6.33158 10.7574 6.41652 10.7629C6.50146 10.7683 6.58444 10.7907 6.66061 10.8287C6.73677 10.8667 6.80457 10.9195 6.86002 10.9841L8.66772 12.9926L13.5608 7.16873C13.6705 7.04183 13.8258 6.96323 13.9931 6.9499C14.1603 6.93657 14.3261 6.9896 14.4545 7.09751C14.583 7.20542 14.6638 7.35955 14.6796 7.52659C14.6953 7.69362 14.6447 7.86014 14.5387 7.99016Z" fill="#F0920D"/>
</svg>
